<svg width="36" height="36" viewBox="0 0 36 36" xmlns="http://www.w3.org/2000/svg">
<path fill-rule="evenodd" clip-rule="evenodd" d="M13.2501 3.5C10.9719 3.5 9.12506 5.34683 9.12506 7.625C9.12506 9.90317 10.9719 11.75 13.2501 11.75C15.5282 11.75 17.3751 9.90317 17.3751 7.625C17.3751 5.34683 15.5282 3.5 13.2501 3.5ZM6.12506 7.625C6.12506 3.68997 9.31503 0.5 13.2501 0.5C17.1851 0.5 20.3751 3.68997 20.3751 7.625C20.3751 11.56 17.1851 14.75 13.2501 14.75C9.31503 14.75 6.12506 11.56 6.12506 7.625Z"/>
<path fill-rule="evenodd" clip-rule="evenodd" d="M10.4062 15.8034C12.2765 15.3786 14.2187 15.382 16.0875 15.8134C16.8947 15.9998 17.398 16.8052 17.2116 17.6124C17.0253 18.4196 16.2198 18.9229 15.4126 18.7366C13.9844 18.4068 12.5001 18.4042 11.0707 18.7289C9.64137 19.0536 8.30388 19.6972 7.15827 20.6116C6.01266 21.526 5.08858 22.6876 4.4551 24.0094C3.82162 25.3312 3.49513 26.7792 3.50005 28.245L3.50007 28.25L3.50006 30.5H15.7501C16.5785 30.5 17.2501 31.1716 17.2501 32C17.2501 32.8284 16.5785 33.5 15.7501 33.5H2.00006C1.17164 33.5 0.500063 32.8284 0.500063 32V28.2524C0.494017 26.3354 0.921203 24.4417 1.74973 22.7129C2.57862 20.9833 3.78778 19.4634 5.28679 18.2669C6.7858 17.0705 8.53588 16.2283 10.4062 15.8034Z"/>
<path fill-rule="evenodd" clip-rule="evenodd" d="M21.0001 21V24.0241C21.0024 25.9661 21.5876 27.8626 22.6799 29.4683C23.7466 31.0363 25.2489 32.2563 27.0001 32.9789C28.7512 32.2563 30.2535 31.0363 31.3202 29.4683C32.4125 27.8626 32.9977 25.9661 33.0001 24.0241C33.0001 24.0238 33.0001 24.0244 33.0001 24.0241V21H21.0001ZM27.4251 34.425L27.9351 35.8356C27.3309 36.0541 26.6693 36.0541 26.0651 35.8356C26.0508 35.8305 26.0367 35.8251 26.0226 35.8196C23.6584 34.883 21.6298 33.2582 20.1995 31.1557C18.7692 29.0532 18.0029 26.5696 18.0001 24.0267L18.0001 20.7895C17.9843 20.4291 18.0415 20.069 18.1687 19.7309C18.3028 19.3743 18.5115 19.0504 18.781 18.7809C19.0504 18.5115 19.3743 18.3027 19.731 18.1686C20.069 18.0415 20.4292 17.9842 20.7896 18H33.2106C33.571 17.9842 33.9311 18.0415 34.2691 18.1686C34.6258 18.3027 34.9497 18.5115 35.2191 18.7809C35.4886 19.0504 35.6973 19.3743 35.8315 19.7309C35.9586 20.069 36.0158 20.4291 36.0001 20.7895V24.025L36.0001 24.0267C35.9972 26.5696 35.231 29.0532 33.8006 31.1557C32.3703 33.2582 30.3417 34.883 27.9775 35.8196L27.4251 34.425Z"/>
</svg>
