<svg width="37" height="37" viewBox="0 0 37 37" fill="none" xmlns="http://www.w3.org/2000/svg">
<path d="M13.5 13.5C16.6066 13.5 19.125 10.9816 19.125 7.875C19.125 4.7684 16.6066 2.25 13.5 2.25C10.3934 2.25 7.875 4.7684 7.875 7.875C7.875 10.9816 10.3934 13.5 13.5 13.5Z" stroke="#292966" stroke-width="3" stroke-linecap="round" stroke-linejoin="round"/>
<path d="M15.9999 17.525C14.3514 17.1444 12.6382 17.1414 10.9883 17.5162C9.3385 17.891 7.79471 18.6338 6.47241 19.6893C5.1501 20.7447 4.08348 22.0854 3.35229 23.6111C2.6211 25.1369 2.24426 26.8081 2.24994 28.5V32.25H15.9999" stroke="#292966" stroke-width="3" stroke-linecap="round" stroke-linejoin="round"/>
<path d="M27.675 34.6751C27.4004 34.7744 27.0996 34.7744 26.825 34.6751C24.74 33.8492 22.9511 32.4163 21.6897 30.5621C20.4283 28.7079 19.7525 26.5177 19.75 24.2751V21.0001C19.739 20.8331 19.7637 20.6657 19.8226 20.509C19.8815 20.3523 19.9732 20.2101 20.0916 20.0917C20.2099 19.9734 20.3522 19.8817 20.5089 19.8227C20.6655 19.7638 20.833 19.7391 21 19.7501H33.5C33.667 19.7391 33.8345 19.7638 33.9911 19.8227C34.1478 19.8817 34.2901 19.9734 34.4084 20.0917C34.5268 20.2101 34.6185 20.3523 34.6774 20.509C34.7363 20.6657 34.761 20.8331 34.75 21.0001V24.2751C34.7475 26.5177 34.0717 28.7079 32.8103 30.5621C31.5489 32.4163 29.76 33.8492 27.675 34.6751V34.6751Z" stroke="#292966" stroke-width="3" stroke-linecap="round" stroke-linejoin="round"/>
</svg>
