<svg width="37" height="36" viewBox="0 0 37 36" fill="none" xmlns="http://www.w3.org/2000/svg">
<path d="M33.275 13.7502H3.72504C2.32504 13.7502 1.72504 12.2252 2.82504 11.5002L17.6 1.82517C17.8728 1.6647 18.1836 1.58008 18.5 1.58008C18.8165 1.58008 19.1273 1.6647 19.4 1.82517L34.175 11.5002C35.275 12.2252 34.675 13.7502 33.275 13.7502Z" stroke="#292966" stroke-width="3" stroke-linecap="round" stroke-linejoin="round"/>
<path d="M33.5 27.5H3.5C2.80964 27.5 2.25 28.0596 2.25 28.75V32.5C2.25 33.1904 2.80964 33.75 3.5 33.75H33.5C34.1904 33.75 34.75 33.1904 34.75 32.5V28.75C34.75 28.0596 34.1904 27.5 33.5 27.5Z" stroke="#292966" stroke-width="3" stroke-linecap="round" stroke-linejoin="round"/>
<path d="M6 13.75V27.5" stroke="#292966" stroke-width="3" stroke-linecap="round" stroke-linejoin="round"/>
<path d="M12.25 13.75V27.5" stroke="#292966" stroke-width="3" stroke-linecap="round" stroke-linejoin="round"/>
<path d="M18.5 13.75V27.5" stroke="#292966" stroke-width="3" stroke-linecap="round" stroke-linejoin="round"/>
<path d="M24.75 13.75V27.5" stroke="#292966" stroke-width="3" stroke-linecap="round" stroke-linejoin="round"/>
<path d="M31 13.75V27.5" stroke="#292966" stroke-width="3" stroke-linecap="round" stroke-linejoin="round"/>
</svg>
