<svg width="37" height="36" viewBox="0 0 37 36" xmlns="http://www.w3.org/2000/svg">
<path fill-rule="evenodd" clip-rule="evenodd" d="M18.3785 3.10826L4.41778 12.25H32.5822L18.6215 3.10826C18.5838 3.08968 18.5422 3.07996 18.5 3.07996C18.4578 3.07996 18.4162 3.08968 18.3785 3.10826ZM16.8394 0.532164C17.3428 0.236083 17.9161 0.0799561 18.5 0.0799561C19.0839 0.0799561 19.6573 0.236083 20.1606 0.532164C20.1813 0.544336 20.2017 0.557002 20.2217 0.570153L35.0005 10.2476C36.1483 11.0041 36.5047 12.3229 36.0565 13.4508C35.6269 14.5318 34.5477 15.25 33.275 15.25H3.72501C2.45231 15.25 1.37307 14.5318 0.943523 13.4508C0.495323 12.3229 0.851699 11.0041 1.99954 10.2476L2.00328 10.2452L16.7783 0.570153C16.7984 0.557002 16.8188 0.544336 16.8394 0.532164Z" />
<path fill-rule="evenodd" clip-rule="evenodd" d="M3.75 29V32.25H33.25V29H3.75ZM0.75 28.75C0.75 27.2312 1.98122 26 3.5 26H33.5C35.0188 26 36.25 27.2312 36.25 28.75V32.5C36.25 34.0188 35.0188 35.25 33.5 35.25H3.5C1.98122 35.25 0.75 34.0188 0.75 32.5V28.75Z" />
<path fill-rule="evenodd" clip-rule="evenodd" d="M6 12.25C6.82843 12.25 7.5 12.9216 7.5 13.75V27.5C7.5 28.3284 6.82843 29 6 29C5.17157 29 4.5 28.3284 4.5 27.5V13.75C4.5 12.9216 5.17157 12.25 6 12.25Z" />
<path fill-rule="evenodd" clip-rule="evenodd" d="M12.25 12.25C13.0784 12.25 13.75 12.9216 13.75 13.75V27.5C13.75 28.3284 13.0784 29 12.25 29C11.4216 29 10.75 28.3284 10.75 27.5V13.75C10.75 12.9216 11.4216 12.25 12.25 12.25Z" />
<path fill-rule="evenodd" clip-rule="evenodd" d="M18.5 12.25C19.3284 12.25 20 12.9216 20 13.75V27.5C20 28.3284 19.3284 29 18.5 29C17.6716 29 17 28.3284 17 27.5V13.75C17 12.9216 17.6716 12.25 18.5 12.25Z" />
<path fill-rule="evenodd" clip-rule="evenodd" d="M24.75 12.25C25.5784 12.25 26.25 12.9216 26.25 13.75V27.5C26.25 28.3284 25.5784 29 24.75 29C23.9216 29 23.25 28.3284 23.25 27.5V13.75C23.25 12.9216 23.9216 12.25 24.75 12.25Z" />
<path fill-rule="evenodd" clip-rule="evenodd" d="M31 12.25C31.8284 12.25 32.5 12.9216 32.5 13.75V27.5C32.5 28.3284 31.8284 29 31 29C30.1716 29 29.5 28.3284 29.5 27.5V13.75C29.5 12.9216 30.1716 12.25 31 12.25Z" />
</svg>
