<svg width="30" height="32" viewBox="0 0 30 32" fill="none" xmlns="http://www.w3.org/2000/svg">
<path d="M2.65714 15.0143L27.3 3.80713" stroke="#292966" stroke-width="3" stroke-linecap="round" stroke-linejoin="round"/>
<path d="M22.6929 2.07153L27.3 3.80725L25.5857 8.41439" stroke="#292966" stroke-width="3" stroke-linecap="round" stroke-linejoin="round"/>
<path d="M28.3929 29.9502H23.0357V14.9502C23.0357 14.666 23.1486 14.3935 23.3495 14.1926C23.5505 13.9916 23.823 13.8788 24.1071 13.8788H27.3214C27.6056 13.8788 27.8781 13.9916 28.079 14.1926C28.28 14.3935 28.3929 14.666 28.3929 14.9502L28.3929 29.9502Z" stroke="#292966" stroke-width="3" stroke-linecap="round" stroke-linejoin="round"/>
<path d="M17.6786 29.9502H12.3214L12.3214 18.1645C12.3214 17.8803 12.4343 17.6078 12.6353 17.4069C12.8362 17.2059 13.1087 17.0931 13.3929 17.0931H16.6072C16.8913 17.0931 17.1638 17.2059 17.3648 17.4069C17.5657 17.6078 17.6786 17.8803 17.6786 18.1645V29.9502Z" stroke="#292966" stroke-width="3" stroke-linecap="round" stroke-linejoin="round"/>
<path d="M6.96429 29.9502H1.60715L1.60715 21.3788C1.60715 21.0946 1.72003 20.8221 1.92097 20.6212C2.1219 20.4202 2.39442 20.3073 2.67858 20.3073H5.89287C6.17703 20.3073 6.44955 20.4202 6.65048 20.6212C6.85141 20.8221 6.96429 21.0946 6.96429 21.3788L6.96429 29.9502Z" stroke="#292966" stroke-width="3" stroke-linecap="round" stroke-linejoin="round"/>
</svg>
