<svg width="30" height="32" viewBox="0 0 30 32" xmlns="http://www.w3.org/2000/svg">
<path fill-rule="evenodd" clip-rule="evenodd" d="M28.6654 3.18616C29.0084 3.94026 28.6751 4.8296 27.921 5.17256L3.27811 16.3797C2.524 16.7227 1.63466 16.3894 1.29171 15.6352C0.948754 14.8811 1.28206 13.9918 2.03616 13.6488L26.679 2.4417C27.4331 2.09875 28.3225 2.43205 28.6654 3.18616Z" />
<path fill-rule="evenodd" clip-rule="evenodd" d="M21.2892 1.54262C21.5813 0.767385 22.4465 0.375699 23.2217 0.667764L27.8289 2.40348C28.6019 2.6947 28.9939 3.55608 28.7059 4.33027L26.9916 8.93741C26.7027 9.71383 25.8391 10.109 25.0626 9.82014C24.2862 9.53124 23.891 8.66763 24.1799 7.89121L25.3732 4.68417L22.164 3.47514C21.3888 3.18307 20.9971 2.31786 21.2892 1.54262Z" />
<path fill-rule="evenodd" clip-rule="evenodd" d="M29.8929 29.95C29.8929 30.7784 29.2213 31.45 28.3929 31.45H23.0357C22.2073 31.45 21.5357 30.7784 21.5357 29.95V14.95C21.5357 14.268 21.8066 13.6139 22.2889 13.1317C22.7711 12.6494 23.4252 12.3785 24.1071 12.3785H27.3214C28.0034 12.3785 28.6575 12.6494 29.1397 13.1317C29.6219 13.6139 29.8929 14.268 29.8929 14.95L29.8929 29.95ZM26.8929 28.45V15.3785H24.5357V28.45H26.8929Z" />
<path fill-rule="evenodd" clip-rule="evenodd" d="M19.1786 29.95C19.1786 30.7784 18.507 31.45 17.6786 31.45H12.3214C11.493 31.45 10.8214 30.7784 10.8214 29.95L10.8214 18.1642C10.8214 17.4823 11.0924 16.8282 11.5746 16.346C12.0568 15.8637 12.7109 15.5928 13.3929 15.5928H16.6072C17.2891 15.5928 17.9432 15.8637 18.4254 16.346C18.9077 16.8282 19.1786 17.4823 19.1786 18.1642V29.95ZM16.1786 28.45V18.5928H13.8214L13.8214 28.45H16.1786Z" />
<path fill-rule="evenodd" clip-rule="evenodd" d="M8.46429 29.95C8.46429 30.7784 7.79272 31.45 6.96429 31.45H1.60715C0.778725 31.45 0.107152 30.7784 0.107152 29.95L0.107152 21.3785C0.107152 20.6965 0.378069 20.0425 0.860306 19.5602C1.34254 19.078 1.9966 18.8071 2.67858 18.8071H5.89287C6.57485 18.8071 7.2289 19.078 7.71114 19.5602C8.19338 20.0425 8.46429 20.6965 8.46429 21.3785L8.46429 29.95ZM5.46429 28.45L5.46429 21.8071H3.10715L3.10715 28.45H5.46429Z" />
</svg>
